<svg width="18" height="18" viewBox="0 0 18 18" fill="none" xmlns="http://www.w3.org/2000/svg">
<path d="M16.08 8.2875L9.1875 15.18C8.34312 16.0244 7.19789 16.4988 6.00375 16.4988C4.80962 16.4988 3.66439 16.0244 2.82 15.18C1.97562 14.3356 1.50125 13.1904 1.50125 11.9962C1.50125 10.8021 1.97562 9.65688 2.82 8.8125L9.7125 1.92C10.2754 1.35708 11.0389 1.04083 11.835 1.04083C12.6311 1.04083 13.3946 1.35708 13.9575 1.92C14.5204 2.48292 14.8367 3.24641 14.8367 4.0425C14.8367 4.83859 14.5204 5.60208 13.9575 6.165L7.0575 13.0575C6.77604 13.339 6.3943 13.4971 5.99625 13.4971C5.59821 13.4971 5.21646 13.339 4.935 13.0575C4.65354 12.776 4.49542 12.3943 4.49542 11.9962C4.49542 11.5982 4.65354 11.2165 4.935 10.935L11.3025 4.575" stroke="#555555" stroke-width="1.5" stroke-linecap="round" stroke-linejoin="round"/>
</svg>
